<?xml version="1.0" encoding="UTF-8"?>
<svg id="Home" xmlns="http://www.w3.org/2000/svg" viewBox="0 0 563.19 641.95">
  <defs>
    <style>
      .cls-1 {
        stroke: #000;
        stroke-miterlimit: 10;
        stroke-width: 2px;
      }
    </style>
  </defs>
  <path id="Home-2" data-name="Home" class="cls-1" d="M553.72,241.15L295.62,8.35c-11.2-9.8-26.7-9.8-37.9,0L10.82,227.15c-7,5.5-10.1,13.5-9.8,21.6v360c0,4.2,0,16.8,9.8,25.2,4.2,4.2,11.2,7,19.6,7h174.5v-182.4h149v182.4h171.7c7,0,18.2-1.4,26.7-8.4,5.6-7,9.8-15.4,9.8-23.8v-340.9c.4-10.4-.8-20-8.4-26.7ZM393.82,596.95v-166.4c0-15.4-12.6-28.1-28.1-28.1h-168.3c-15.4,0-28.1,12.6-28.1,28.1v166.4H38.92V253.95L275.92,50.95l246,218v328h-128.1Z"/>
</svg>